<svg width="300" height="86" fill="none" xmlns="http://www.w3.org/2000/svg"><g clip-path="url(#prefix__clip0_304_37)"><path d="M64.71 16.563c-.058-.423-.427-.657-.733-.683-.305-.026-6.265-.116-6.265-.116s-4.984-4.84-5.477-5.333c-.492-.492-1.454-.344-1.828-.232l-2.504.776a17.547 17.547 0 00-1.198-2.946C44.93 4.643 42.33 2.852 39.19 2.847h-.012c-.218 0-.434.021-.652.04a9.608 9.608 0 00-.284-.328C36.875 1.096 35.122.383 33.02.446 28.965.562 24.925 3.49 21.65 8.694c-2.304 3.66-4.058 8.26-4.555 11.82-4.657 1.442-7.913 2.45-7.985 2.474-2.35.738-2.425.81-2.732 3.026C6.151 27.689 0 75.248 0 75.248l51.543 8.915 22.34-5.554s-9.114-61.623-9.173-62.046zm-19.387-4.79l-4 1.239c-.03-2.054-.274-4.91-1.23-7.38 3.077.583 4.591 4.065 5.23 6.142zm-6.697 2.075l-8.605 2.664c.831-3.185 2.409-6.355 4.346-8.434.72-.773 1.728-1.635 2.922-2.128 1.121 2.342 1.365 5.656 1.337 7.898zM33.102 3.145c.952-.021 1.753.188 2.439.638-1.097.57-2.156 1.387-3.15 2.453C29.814 9 27.84 13.29 27.052 17.43c-2.455.76-4.856 1.505-7.067 2.188C21.38 13.102 26.84 3.326 33.1 3.145z" fill="#2563EB"/><path d="M63.979 15.882c-.304-.025-6.265-.116-6.265-.116s-4.984-4.84-5.477-5.333c-.183-.183-.431-.278-.692-.318l.003 74.046 22.337-5.552s-9.114-61.621-9.172-62.044c-.058-.423-.43-.657-.734-.683z" fill="#0B41B8"/><path d="M39.163 27.368l-2.594 9.707s-2.895-1.317-6.325-1.101c-5.031.318-5.085 3.49-5.033 4.288.274 4.34 11.694 5.288 12.336 15.457.504 8-4.244 13.472-11.084 13.904-8.211.518-12.731-4.325-12.731-4.325l1.74-7.4s4.55 3.433 8.192 3.203c2.378-.151 3.228-2.086 3.142-3.454-.357-5.663-9.658-5.328-10.245-14.633-.495-7.83 4.648-15.764 15.994-16.48 4.371-.28 6.608.834 6.608.834z" fill="#e8ebe7"/><path d="M103.301 47.694c-2.569-1.394-3.89-2.57-3.89-4.184 0-2.055 1.835-3.375 4.698-3.375 3.334 0 6.31 1.394 6.31 1.394l2.348-7.193s-2.159-1.688-8.513-1.688c-8.841 0-14.97 5.063-14.97 12.182 0 4.036 2.862 7.119 6.68 9.319 3.082 1.76 4.183 3.008 4.183 4.842 0 1.908-1.541 3.449-4.403 3.449-4.264 0-8.29-2.203-8.29-2.203l-2.496 7.193s3.72 2.495 9.98 2.495c9.1 0 15.631-4.477 15.631-12.549-.002-4.326-3.304-7.409-7.268-9.682zM139.553 32.576c-4.477 0-7.999 2.129-10.713 5.356l-.147-.073 3.888-20.326h-10.127l-9.832 51.733h10.127l3.375-17.684c1.32-6.678 4.769-10.786 7.999-10.786 2.273 0 3.156 1.541 3.156 3.744 0 1.393-.148 3.082-.44 4.476l-3.815 20.252h10.128l3.961-20.913c.441-2.203.735-4.843.735-6.605-.004-5.725-3.012-9.174-8.295-9.174zM170.739 32.576c-12.183 0-20.252 11.008-20.252 23.261 0 7.852 4.842 14.162 13.942 14.162 11.961 0 20.033-10.713 20.033-23.262 0-7.263-4.257-14.16-13.723-14.16zm-4.99 29.647c-3.449 0-4.917-2.935-4.917-6.605 0-5.796 3.01-15.262 8.513-15.262 3.596 0 4.768 3.082 4.768 6.091 0 6.236-3.006 15.776-8.364 15.776zM210.366 32.576c-6.836 0-10.715 6.018-10.715 6.018h-.145l.587-5.43h-8.953c-.439 3.67-1.248 9.245-2.054 13.428l-7.045 37.056h10.128l2.786-14.97h.222s2.078 1.32 5.944 1.32c11.887 0 19.665-12.18 19.665-24.51 0-6.82-3.01-12.912-10.42-12.912zm-9.687 29.792c-2.629 0-4.185-1.467-4.185-1.467l1.689-9.466c1.175-6.31 4.476-10.494 7.999-10.494 3.083 0 4.036 2.861 4.036 5.578 0 6.53-3.889 15.85-9.539 15.85zM235.242 18.046c-3.228 0-5.796 2.57-5.796 5.87 0 3.01 1.907 5.064 4.769 5.064h.146c3.157 0 5.871-2.129 5.945-5.87 0-2.935-1.982-5.064-5.064-5.064zM221.08 69.266h10.125l6.9-35.881h-10.201l-6.824 35.88zM263.862 33.311h-7.045l.365-1.689c.588-3.448 2.643-6.53 6.018-6.53 1.802 0 3.228.513 3.228.513l1.981-7.925s-1.761-.88-5.504-.88c-3.596 0-7.189 1.027-9.906 3.375-3.449 2.935-5.064 7.19-5.87 11.447l-.292 1.69h-4.698l-1.468 7.632h4.698l-5.356 28.324h10.127l5.357-28.325h6.971l1.394-7.632zM288.223 33.385s-6.33 15.949-9.173 24.655h-.148c-.192-2.804-2.495-24.655-2.495-24.655h-10.64l6.093 32.946c.148.733.074 1.175-.22 1.689-1.177 2.273-3.157 4.476-5.505 6.09-1.908 1.394-4.035 2.275-5.722 2.862l2.787 8.586c2.056-.44 6.31-2.129 9.906-5.504 4.624-4.328 8.879-11.007 13.281-20.107l12.402-26.564h-10.566v.002z" fill="#2563EB"/></g><defs><clipPath id="prefix__clip0_304_37"><path fill="#e8ebe7" transform="translate(0 .442)" d="M0 0h300v85.116H0z"/></clipPath></defs></svg>