<svg width="300" height="74" fill="none" xmlns="http://www.w3.org/2000/svg"><g clip-path="url(#prefix__clip0_304_61)" fill-rule="evenodd" clip-rule="evenodd" fill="#2563EB"><path d="M166.688 46.911c0 .572-.095 1.24-.19 1.716-.853 2.477-3.129 4.097-5.784 4.097-2.37 0-4.172-1.334-4.172-4.193 0-4.383 4.741-5.527 10.241-5.527v3.907h-.095zm8.533-7.624c0-7.147-3.034-13.532-13.369-13.532-5.31 0-9.576 1.524-11.852 2.859l1.707 5.813c2.655-1.525 5.594-2.383 8.628-2.478 5.31 0 6.163 2.954 6.163 4.86v.477c-11.473 0-18.679 4.002-18.679 12.103 0 4.956 3.698 9.625 10.146 9.625 3.887 0 7.206-1.524 9.197-4.098h.189s1.328 5.528 8.534 3.431c-.379-2.287-.569-4.765-.569-7.624V39.287h-.095zM0 15.94l8.723 35.833c1.422 5.813 3.888 8.005 11.094 6.575l4.646-19.06c1.137-4.765 1.99-8.1 2.75-12.96h.094c.57 4.86 1.328 8.195 2.276 12.96l2.844 13.247c1.043 4.574 3.698 7.433 10.81 5.813L54.33 16.034h-9.008L41.53 34.332c-1.043 5.336-1.991 9.53-2.655 14.39-.664-4.86-1.517-8.863-2.56-14.01l-3.888-18.678h-9.386l-4.267 18.202c-1.138 5.528-2.276 10.007-3.034 14.677h-.095c-.759-4.384-1.707-10.007-2.75-15.344L9.482 15.94H0zM70.828 46.91c0 .572 0 1.24-.19 1.716-.853 2.477-3.129 4.097-5.783 4.097-2.37 0-4.172-1.334-4.172-4.193 0-4.383 4.74-5.527 10.24-5.527v3.907h-.095zm8.628-7.624c0-7.147-3.034-13.532-13.369-13.532-5.31 0-9.576 1.524-11.852 2.859l1.707 5.813c2.655-1.525 5.594-2.383 8.628-2.478 5.31 0 6.163 2.954 6.163 4.86v.477c-11.473 0-18.679 4.002-18.679 12.103 0 4.956 3.698 9.625 10.146 9.625 3.887 0 7.206-1.524 9.197-4.098h.19s1.327 5.528 8.533 3.431c-.38-2.287-.569-4.765-.569-7.624V39.287h-.095zm13.18 10.007V15.939h-8.534v42.313h8.534v-8.958zm108.849-33.26v31.163c0 4.289.759 7.338 2.561 9.149 1.517 1.62 3.982 2.668 6.921 2.668 2.56 0 5.025-.476 6.163-.953l-.095-6.766c-.853.286-1.896.381-3.223.381-2.94 0-3.888-1.81-3.888-5.718V34.141h7.491v-8.1h-7.491V15.939l-8.439.095zm-22.092 10.483v31.83h8.818V42.051c0-.858.095-1.62.19-2.383.663-3.43 3.224-5.622 7.016-5.622 1.043 0 1.707.095 2.56.19V25.85c-.663-.095-1.327-.19-1.896-.19-3.319 0-7.017 2.096-8.628 6.766h-.19v-6.004l-7.87.095zm-81.732 0v31.83h8.534V39.668c0-.857.095-1.81.379-2.573.664-1.906 2.465-4.098 5.215-4.098 3.508 0 5.12 2.955 5.12 7.148v18.107h8.628v-18.87c0-.857.095-1.905.38-2.573.663-2.287 2.844-3.907 5.214-3.907 3.509 0 5.215 2.86 5.215 7.91v17.44h8.629V39.573c0-9.816-5.026-13.818-10.62-13.818-2.56 0-4.456.667-6.258 1.715-1.517.953-2.844 2.287-3.982 4.003h-.095c-1.422-3.526-4.93-5.814-8.723-5.718-3.793-.191-7.396 1.715-9.197 5.05h-.095v-4.288h-8.344zM263.59 25.087c1.707 0 3.129-.953 3.319-2l1.612-19.156c0-1.906-2.181-3.431-4.931-3.431-2.749 0-4.93 1.525-4.93 3.43l1.707 19.156c.094 1.144 1.517 2.002 3.223 2.002zm-10.335 6.004c.854-1.524.759-3.145-.094-3.907l-15.645-10.96c-1.612-.953-4.077.191-5.405 2.574-1.422 2.382-1.138 5.146.474 6.004l17.352 8.1c1.043.381 2.56-.381 3.318-1.81zm20.576-.095c.853 1.525 2.275 2.287 3.413 1.81l17.257-8.1c1.612-.953 1.896-3.621.474-6.004-1.423-2.382-3.793-3.526-5.405-2.573l-15.645 11.055c-.853.762-.948 2.383-.094 3.812zM263.59 48.913c1.707 0 3.129.953 3.319 2l1.612 19.156c0 1.906-2.181 3.431-4.931 3.431-2.749 0-4.93-1.525-4.93-3.43l1.707-19.156c.094-1.144 1.517-2.002 3.223-2.002zm10.241-5.91c.853-1.524 2.275-2.286 3.413-1.905l17.257 8.1c1.612.953 1.896 3.622.474 6.004-1.423 2.383-3.793 3.526-5.405 2.574l-15.645-10.96c-.853-.667-.948-2.383-.094-3.812zm-20.576 0c.854 1.43.759 3.146-.094 3.908l-15.645 10.96c-1.612.953-4.077-.19-5.405-2.573-1.422-2.383-1.138-5.051.474-6.004l17.352-8.1c1.043-.477 2.56.285 3.318 1.81zm44.943 13.152h.19c.19 0 .379-.095.379-.19 0-.19-.094-.19-.284-.19h-.19v.38h-.095zm0 .858h-.379v-1.525h.569c.285 0 .379 0 .569.096.095.095.19.19.19.285 0 .191-.095.286-.285.382.19.095.285.19.285.38 0 .287.094.287.094.382h-.379c-.095-.095-.095-.19-.095-.381 0-.19-.094-.19-.284-.19h-.19l-.095.571zm.19-2.001c-.664 0-1.138.572-1.138 1.239 0 .667.474 1.239 1.138 1.239.664 0 1.138-.572 1.138-1.24.095-.666-.474-1.238-1.138-1.238zm0-.286c.853 0 1.517.667 1.517 1.525 0 .857-.664 1.525-1.517 1.525-.853 0-1.612-.668-1.612-1.525.095-.858.759-1.525 1.612-1.525z"/></g><defs><clipPath id="prefix__clip0_304_61"><path fill="#fff" transform="translate(0 .5)" d="M0 0h300v73H0z"/></clipPath></defs></svg>