<svg width="300" height="176" fill="none" xmlns="http://www.w3.org/2000/svg"><g clip-path="url(#prefix__clip0_304_49)"><path d="M240.212 127.693H300v48.198h-60.141L225 161.715v-19.847l15.212-14.175zM53.774 38.03l1.06-.355c.708-.354 1.77-1.063 2.831-1.771 1.061-.71 2.123-1.772 3.184-2.836 1.061-1.063 1.769-2.48 2.83-4.607.708-1.772 1.062-3.898 1.062-6.025 0-5.316-2.477-10.277-7.43-14.175-4.953-3.899-11.674-6.025-20.165-6.025H0v75.84h39.269c9.906 0 30.778-1.771 30.778-21.617 0-15.24-15.92-18.43-16.273-18.43zM24.41 19.956h9.198c1.77 0 3.184.354 4.6 1.772 1.06 1.063 1.768 2.48 1.768 3.898 0 1.418-.707 2.835-1.768 3.898-1.416 1.064-2.83 1.772-4.6 1.772H24.41v-11.34zm16.982 38.629c-1.416 1.418-3.184 2.126-5.307 2.126H24.41V47.244h11.675c2.123 0 3.891.71 5.306 2.127 1.416 1.417 2.123 2.835 2.123 4.961 0 1.418-.707 2.835-2.123 4.253zM73.231 122.022l1.062-.354c.707-.355 1.768-1.063 2.83-1.772 1.061-.709 2.122-1.772 3.184-2.835 1.06-1.064 1.769-2.481 2.83-4.608.707-1.772 1.061-3.898 1.061-6.024 0-5.316-2.476-10.278-7.43-14.176-4.952-3.899-11.674-6.025-20.164-6.025H19.458v75.841h38.915c9.905 0 30.778-1.772 30.778-21.618.354-15.239-15.566-18.074-15.92-18.429zm-29.01-18.074h8.845c1.769 0 3.184.709 4.6 1.772 1.06 1.063 1.768 2.481 1.768 3.898 0 1.418-.708 2.835-1.769 3.899-1.061 1.063-2.476 1.772-4.599 1.772h-8.844v-11.341zm16.628 38.629c-1.415 1.418-3.184 2.127-5.306 2.127H44.221v-13.467h11.32c2.123 0 3.892.708 5.307 2.126 1.415 1.417 2.123 2.835 2.123 4.961 0 1.418-.708 2.836-2.123 4.253zM132.665 59.648H96.226V47.953h29.717V30.588H96.226v-9.924h36.439V2.236H71.462v75.84h61.203V59.649zM195.283 2.236v18.428h20.165v57.413h24.411V20.664h19.811V2.236h-64.387zM167.689 58.585c-1.415 1.063-3.184 1.772-5.661 1.772-2.476 0-4.953-.709-7.429-2.126-2.476-1.418-4.245-2.481-5.307-3.19-.353-.354-1.061-.709-1.415-1.063l-14.504 13.821 1.061 1.063c.708 1.064 2.123 2.127 3.891 3.19 1.769 1.418 3.892 2.48 6.368 3.898 2.477 1.418 5.307 2.481 9.198 3.19 3.538 1.063 7.43 1.418 11.321 1.418 9.552 0 17.335-2.481 22.996-7.443 5.66-4.961 8.49-10.986 8.49-18.074 0-3.898-.707-7.797-2.476-10.632-1.769-3.19-3.538-5.316-6.014-7.088-2.477-1.417-4.953-2.835-7.783-4.253-2.477-1.063-4.953-2.126-7.43-2.48h-.707c-2.477-.71-4.599-1.418-6.014-2.481-1.769-1.063-2.477-1.772-2.477-3.19 0-1.417.708-2.48 1.769-3.544 1.061-1.063 2.83-1.417 4.953-1.417 4.953 0 8.137 2.126 9.552 3.898l14.504-13.821-.353-.355c-.708-.709-1.769-1.772-3.184-2.835-1.415-1.063-3.184-2.126-5.307-3.19-2.123-1.063-4.599-2.126-8.137-2.835-3.537-.354-7.075-.709-10.613-.709-9.198 0-16.273 2.481-21.934 7.088-5.66 4.962-8.49 10.632-8.49 17.011 0 3.544.707 6.734 1.768 9.215 1.062 2.835 2.831 4.961 4.6 6.733 1.768 1.772 3.891 3.19 6.367 4.253 2.123 1.063 3.892 1.772 6.015 2.48.353 0 .707.355 1.061.355 2.476.71 4.599 1.418 6.368 2.127 1.769.708 3.538 1.417 4.599 2.126 1.061.709 1.769 1.772 1.769 2.48.707 2.127 0 3.545-1.415 4.608zM132.665 131.237c0 4.961-3.891 9.214-9.198 9.214-4.953 0-9.198-3.899-9.198-9.214V86.228h-24.41v43.945c0 18.075 14.504 32.959 32.9 32.959h1.416c18.042 0 32.9-14.53 32.9-32.959V86.228h-24.41v45.009zM198.821 112.099l-15.92-25.871h-24.41l28.301 48.907v26.934h24.411v-26.934l28.302-48.907h-24.411l-16.273 25.871z" fill="#2563EB"/><path d="M237.028 151.792c0 1.772-1.415 2.835-2.83 2.835s-2.83-1.418-2.83-2.835c0-1.772 1.415-2.836 2.83-2.836s2.83 1.064 2.83 2.836z" fill="#FF0"/><path d="M240.212 108.201h-1.769v-.709h4.246v.709h-1.769v5.316h-.708v-5.316zm3.538-.709h1.061l1.769 4.607 1.769-4.607h1.061v5.67h-.707v-4.961l-2.123 4.961h-.354l-2.122-4.961v4.961h-.708v-5.67h.354z" fill="#2563EB"/></g><defs><clipPath id="prefix__clip0_304_49"><path fill="#fff" transform="translate(0 .11)" d="M0 0h300v175.781H0z"/></clipPath></defs></svg>