<svg width="300" height="91" fill="none" xmlns="http://www.w3.org/2000/svg"><g clip-path="url(#prefix__clip0_304_27)" fill-rule="evenodd" clip-rule="evenodd" fill="#2563EB"><path d="M186.114 70.617C168.681 83.452 143.412 90.3 121.656 90.3c-30.506 0-57.968-11.27-78.745-30.013-1.632-1.474-.17-3.483 1.79-2.335 22.421 13.03 50.145 20.87 78.783 20.87 19.314 0 40.561-3.992 60.097-12.274 2.951-1.252 5.419 1.93 2.533 4.07z"/><path d="M193.362 62.335c-2.22-2.844-14.731-1.344-20.346-.678-1.711.208-1.972-1.279-.431-2.348 9.964-7.005 26.314-4.983 28.22-2.635 1.907 2.36-.496 18.73-9.859 26.543-1.437 1.2-2.808.561-2.168-1.03 2.103-5.243 6.817-16.996 4.584-19.852zM173.408 9.86V3.053c0-1.03.783-1.721 1.724-1.721h30.518c.98 0 1.763.704 1.763 1.721v5.83c-.013.979-.836 2.257-2.298 4.279L189.3 35.713c5.877-.143 12.08.73 17.408 3.73 1.201.679 1.528 1.67 1.619 2.648v7.266c0 .99-1.097 2.152-2.246 1.552-9.389-4.918-21.86-5.452-32.242.052-1.058.574-2.168-.574-2.168-1.565v-6.9c0-1.109.013-3 1.123-4.683l18.322-26.243h-15.945c-.98 0-1.763-.692-1.763-1.71zM62.082 52.343h-9.285c-.888-.065-1.593-.73-1.659-1.578V3.17c0-.953.797-1.71 1.79-1.71h8.657c.901.04 1.62.731 1.685 1.592v6.222h.17C65.699 3.261 69.943.457 75.663.457c5.81 0 9.441 2.804 12.053 8.817C89.962 3.261 95.068.457 100.54.457c3.891 0 8.148 1.604 10.747 5.204 2.938 4.004 2.338 9.822 2.338 14.922l-.013 30.039c0 .952-.797 1.721-1.789 1.721h-9.272c-.927-.065-1.672-.808-1.672-1.721V25.396c0-2.009.183-7.018-.261-8.922-.692-3.196-2.768-4.096-5.459-4.096-2.246 0-4.596 1.5-5.55 3.9-.953 2.4-.861 6.418-.861 9.118v25.226c0 .952-.797 1.721-1.79 1.721h-9.271c-.94-.065-1.672-.808-1.672-1.721l-.013-25.226c0-5.309.875-13.122-5.72-13.122-6.673 0-6.411 7.617-6.411 13.122v25.226c0 .952-.797 1.721-1.79 1.721zM233.687.457c13.777 0 21.234 11.817 21.234 26.843 0 14.517-8.24 26.035-21.234 26.035-13.529 0-20.894-11.818-20.894-26.544 0-14.817 7.457-26.334 20.894-26.334zm.079 9.717c-6.843 0-7.274 9.313-7.274 15.117 0 5.818-.091 18.235 7.195 18.235 7.196 0 7.535-10.017 7.535-16.122 0-4.017-.169-8.817-1.384-12.626-1.045-3.313-3.121-4.604-6.072-4.604zM272.785 52.343h-9.245c-.927-.065-1.672-.808-1.672-1.721l-.013-47.609c.079-.874.849-1.552 1.789-1.552h8.606c.81.039 1.476.587 1.659 1.33v7.279h.169c2.599-6.51 6.242-9.613 12.654-9.613 4.166 0 8.227 1.5 10.839 5.608C300 9.874 300 16.278 300 20.883v29.96c-.104.835-.875 1.5-1.789 1.5H288.9c-.849-.065-1.554-.69-1.645-1.5V24.991c0-5.204.6-12.821-5.812-12.821-2.259 0-4.335 1.513-5.367 3.808-1.306 2.909-1.475 5.805-1.475 9.013v25.63c-.013.953-.823 1.722-1.816 1.722zM149.079 29.609c0 3.613.092 6.626-1.736 9.834-1.476 2.61-3.827 4.214-6.425 4.214-3.565 0-5.655-2.713-5.655-6.718 0-7.904 7.091-9.339 13.816-9.339v2.009zm9.364 22.604c-.614.548-1.502.587-2.194.222-3.082-2.557-3.644-3.744-5.328-6.183-5.093 5.191-8.711 6.744-15.305 6.744-7.823 0-13.895-4.813-13.895-14.453 0-7.526 4.074-12.652 9.899-15.156 5.04-2.217 12.079-2.609 17.459-3.222v-1.2c0-2.204.17-4.813-1.136-6.717-1.123-1.709-3.291-2.413-5.21-2.413-3.539 0-6.686 1.813-7.457 5.57-.157.834-.77 1.656-1.619 1.695l-8.998-.965c-.757-.17-1.606-.783-1.384-1.944C125.338 3.287 135.211.001 144.039.001c4.518 0 10.421 1.2 13.986 4.616 4.518 4.213 4.087 9.835 4.087 15.953v14.452c0 4.343 1.802 6.248 3.5 8.595.587.835.718 1.84-.039 2.466-1.894 1.578-5.263 4.513-7.117 6.156l-.013-.026zM27.358 29.609c0 3.613.092 6.626-1.737 9.834-1.475 2.61-3.813 4.214-6.425 4.214-3.565 0-5.641-2.714-5.641-6.718 0-7.904 7.091-9.339 13.803-9.339v2.009zm9.363 22.604c-.613.548-1.501.587-2.193.222-3.082-2.557-3.63-3.744-5.328-6.183-5.093 5.191-8.698 6.744-15.305 6.744C6.085 52.996 0 48.183 0 38.543c0-7.526 4.087-12.652 9.899-15.156 5.04-2.218 12.079-2.609 17.46-3.222v-1.2c0-2.204.169-4.813-1.124-6.717-1.136-1.709-3.304-2.413-5.21-2.413-3.54 0-6.7 1.813-7.47 5.57-.157.834-.77 1.656-1.606 1.695l-9.01-.965c-.758-.17-1.594-.783-1.385-1.944C3.63 3.287 13.49 0 22.318 0c4.518 0 10.42 1.2 13.985 4.617 4.519 4.213 4.088 9.835 4.088 15.953v14.452c0 4.343 1.802 6.248 3.5 8.595.6.835.73 1.84-.026 2.466-1.894 1.578-5.263 4.513-7.117 6.156l-.027-.026z"/></g><defs><clipPath id="prefix__clip0_304_27"><path fill="#fff" d="M0 0h300v90.3H0z"/></clipPath></defs></svg>