<svg width="74" height="72" viewBox="0 0 74 72" fill="none" xmlns="http://www.w3.org/2000/svg">
  <path
    d="M33.7392 1.36019C33.8323 2.81723 33.8116 4.28489 33.6771 5.7313C33.6565 5.9121 33.6461 6.0929 33.6151 6.26306C33.6047 6.34814 33.5944 6.43323 33.584 6.51831C33.5737 6.64593 33.6151 6.31624 33.584 6.50768C33.5737 6.56085 33.5737 6.62466 33.5633 6.67784C33.5116 7.03944 33.4496 7.40104 33.3875 7.76264C33.253 8.48584 33.0771 9.20905 32.8702 9.91098C32.7668 10.2407 32.6633 10.5704 32.5495 10.9001C32.4874 11.0596 32.4357 11.2191 32.3633 11.3786C32.3529 11.4105 32.3115 11.4637 32.3115 11.5063C32.3115 11.3999 32.3736 11.368 32.3322 11.4425C32.2909 11.5275 32.2598 11.6126 32.2184 11.6977C31.9701 12.2614 31.6701 12.8038 31.3391 13.3143C31.2667 13.4313 31.1839 13.5482 31.1012 13.6652C31.0598 13.729 31.008 13.7929 30.9666 13.8567C30.946 13.8779 30.9253 13.9098 30.9149 13.9311C31.0184 13.7397 30.9563 13.8779 30.9253 13.9205C30.7391 14.1651 30.5322 14.4097 30.3253 14.6437C30.1184 14.867 29.9114 15.0797 29.6838 15.2924C29.5804 15.3882 29.4666 15.4839 29.3528 15.5796C29.3011 15.6221 29.2494 15.6647 29.1976 15.7072C29.1149 15.771 29.3528 15.5796 29.2286 15.6859C29.1873 15.7178 29.1562 15.7391 29.1148 15.771C28.8459 15.9731 28.5665 16.1645 28.2769 16.3347C27.9872 16.5049 27.6872 16.6325 27.3872 16.792C27.3975 16.7814 27.563 16.7176 27.4492 16.7601C27.4078 16.7814 27.3665 16.792 27.3251 16.8133C27.2423 16.8452 27.1596 16.8771 27.0665 16.909C26.9113 16.9622 26.7561 17.0154 26.5906 17.0579C26.2699 17.1536 25.9388 17.2174 25.6078 17.26C25.4319 17.2812 25.225 17.4727 25.1422 17.6216C25.0595 17.7811 25.0284 17.9513 25.0491 18.1321C25.1009 18.5149 25.4216 18.8234 25.8147 18.8234C26.5699 18.8127 27.3251 18.8127 28.0803 18.8659C28.2562 18.8765 28.4217 18.8978 28.5976 18.9191C28.6079 18.9191 28.7941 18.951 28.67 18.9297C28.5355 18.9084 28.7217 18.9404 28.7424 18.9404C28.8355 18.951 28.9286 18.9723 29.0217 18.9935C29.3942 19.068 29.7563 19.1637 30.108 19.2807C30.1701 19.3019 30.2425 19.3338 30.3045 19.3551C30.3356 19.3658 30.377 19.387 30.408 19.3977C30.4701 19.4189 30.5322 19.4827 30.3666 19.3764C30.4908 19.4615 30.646 19.504 30.7804 19.5785C31.0391 19.7167 31.2874 19.8656 31.515 20.0358C31.577 20.0783 31.6391 20.1209 31.7012 20.174C31.7219 20.1953 31.7529 20.2166 31.7736 20.2272C31.8771 20.3017 31.7322 20.1953 31.7219 20.1847C31.8253 20.291 31.9598 20.3868 32.0736 20.4825C32.3012 20.6952 32.5184 20.9079 32.7253 21.1419C32.8185 21.2482 32.9116 21.3546 32.9943 21.4609C33.0357 21.5141 33.0771 21.5673 33.1289 21.6311C33.1909 21.7162 33.015 21.4716 33.1081 21.5992C33.1392 21.6417 33.1599 21.6736 33.1909 21.7162C33.3668 21.9608 33.522 22.216 33.6771 22.4713C33.8323 22.7371 33.9772 23.0137 34.1117 23.2902C34.1737 23.4284 34.2358 23.5667 34.2979 23.705C34.3082 23.7369 34.3185 23.7688 34.3392 23.79C34.2565 23.588 34.3082 23.705 34.3289 23.7581C34.3599 23.8432 34.391 23.9177 34.422 24.0028C34.66 24.6409 34.8358 25.2896 34.9703 25.949C35.0117 26.1404 35.0427 26.3212 35.0738 26.5127C35.0841 26.5871 35.0944 26.6722 35.1151 26.7467C35.1255 26.8105 35.1358 26.8636 35.1358 26.9275C35.1358 26.8956 35.1255 26.8636 35.1255 26.8317C35.1255 26.8743 35.1358 26.9062 35.1358 26.9487C35.1772 27.3316 35.2186 27.7038 35.2393 28.0867C35.3531 29.8415 35.2496 31.607 35.1358 33.3512C35.1152 33.7447 35.4462 34.085 35.8083 34.1382C36.1911 34.1914 36.5428 33.9468 36.6566 33.5639C37.4739 30.8944 37.5773 28.0761 38.1877 25.3641C38.3222 24.7579 38.4774 24.1516 38.6843 23.5561C38.7257 23.4284 38.7774 23.3008 38.8188 23.1838C38.8395 23.12 38.8808 23.0562 38.9015 22.9818C38.9015 22.9924 38.8291 23.1626 38.8808 23.0456C38.8912 23.0137 38.9119 22.9711 38.9223 22.9392C39.036 22.684 39.1498 22.4394 39.274 22.1948C39.5223 21.7055 39.8119 21.2376 40.1326 20.8015C40.1533 20.7803 40.174 20.7483 40.1844 20.7271C40.0809 20.8866 40.1119 20.8228 40.143 20.7802C40.1844 20.7271 40.2258 20.6739 40.2671 20.6207C40.3499 20.5144 40.443 20.408 40.5361 20.3017C40.712 20.0996 40.8982 19.9082 41.0844 19.738C41.1982 19.6316 41.3016 19.5359 41.4258 19.4402C41.4465 19.4189 41.4672 19.4083 41.4982 19.387C41.312 19.5359 41.4465 19.4296 41.4775 19.3977C41.5396 19.3551 41.5913 19.3126 41.6534 19.27C41.881 19.1105 42.1189 18.9616 42.3672 18.834C42.4293 18.8021 42.5017 18.7702 42.5638 18.7383C42.5948 18.7276 42.6155 18.717 42.6466 18.7064C42.7914 18.6426 42.4914 18.7702 42.6259 18.717C42.7604 18.6638 42.8948 18.6107 43.0397 18.5681C43.1845 18.5256 43.319 18.483 43.4638 18.4511C43.5259 18.4405 43.5983 18.4192 43.6604 18.4086C43.7225 18.3979 44.0121 18.3554 43.7431 18.3873C43.95 18.3554 44.1466 18.3235 44.2915 18.1533C44.4053 18.0257 44.4777 17.8768 44.5087 17.696C44.5605 17.3344 44.3328 16.8984 43.95 16.8239C43.65 16.7601 43.35 16.6857 43.05 16.5899C42.9155 16.5474 42.7914 16.4942 42.6569 16.4517C42.5845 16.4198 42.5121 16.3879 42.4397 16.3666C42.6776 16.4623 42.4086 16.3453 42.3465 16.3241C41.7982 16.0582 41.2706 15.7391 40.7844 15.3669C40.7637 15.3456 40.7327 15.3243 40.712 15.3137C40.6085 15.2286 40.7534 15.3456 40.7637 15.3562C40.712 15.3031 40.6396 15.2605 40.5775 15.2073C40.4534 15.101 40.3395 15.0053 40.2257 14.8989C39.9981 14.6862 39.7705 14.4629 39.5636 14.2183C39.3567 13.9843 39.1602 13.7503 38.9636 13.5057C38.9429 13.4738 38.9222 13.4419 38.8912 13.41C38.9015 13.4206 39.005 13.5589 38.9223 13.4525C38.8705 13.3887 38.8291 13.3249 38.7774 13.2611C38.6843 13.1335 38.5912 12.9952 38.5084 12.8676C38.167 12.3465 37.867 11.7934 37.598 11.2298C37.5359 11.0915 37.4739 10.9639 37.4118 10.8256C37.3911 10.7937 37.3808 10.7512 37.3704 10.7193C37.3187 10.6023 37.3911 10.7618 37.3911 10.7724C37.3601 10.6767 37.3187 10.5916 37.2877 10.5065C37.1739 10.2194 37.0704 9.9216 36.9669 9.62381C36.5324 8.31567 36.2118 6.965 35.9531 5.60368C35.8083 4.84857 35.6738 4.08283 35.56 3.31709C35.5083 2.95549 35.4566 2.60452 35.4048 2.24292C35.3841 2.06212 35.3531 1.89196 35.3324 1.71116C35.3221 1.64735 35.2807 1.34956 35.322 1.61544C35.3117 1.51972 35.3014 1.43464 35.291 1.33892C35.26 1.11558 35.2186 0.934777 35.0634 0.775247C34.9289 0.636989 34.7117 0.530641 34.5151 0.541276C34.3186 0.551911 34.1013 0.615718 33.9668 0.775247C33.8323 0.945412 33.7082 1.15812 33.7392 1.36019C34.1013 4.15727 34.5151 6.98626 35.3531 9.67699C36.16 12.2401 37.4739 14.6862 39.5326 16.3985C40.7016 17.3663 42.0465 18.1108 43.5259 18.3979C43.5983 17.8768 43.6604 17.3557 43.7328 16.8346C43.0914 16.9196 42.5017 17.0898 41.9017 17.3557C41.3741 17.5897 40.8878 17.9087 40.4326 18.281C39.5429 18.9935 38.8084 19.9188 38.2291 20.9079C37.6187 21.9395 37.1739 23.0775 36.8738 24.2474C36.5118 25.6299 36.3048 27.0551 36.0979 28.4696C35.8703 30.0649 35.6324 31.6602 35.1565 33.2023C35.6634 33.2767 36.1704 33.3405 36.6773 33.415C36.8739 30.2669 37.0497 26.97 36.0152 23.9389C35.1565 21.4077 33.4702 19.0361 31.0184 17.9725C29.3735 17.26 27.5734 17.2387 25.8147 17.26C25.8871 17.7811 25.9492 18.3022 26.0216 18.8234C28.6286 18.4511 30.8529 16.7176 32.3736 14.5905C34.0599 12.2295 34.7945 9.26222 35.1462 6.39069C35.3531 4.72095 35.3945 3.04056 35.2807 1.37082C35.2496 0.956045 34.9393 0.551903 34.5048 0.573174C34.1116 0.583809 33.7082 0.913506 33.7392 1.36019Z"
    fill="#1e40af" />
  <path
    d="M5.01006 22.9817C5.18593 23.7794 5.34111 24.5877 5.4756 25.396C5.54802 25.7895 5.61012 26.183 5.66185 26.5765C5.69288 26.7785 5.7239 26.97 5.74459 27.172C5.75494 27.2571 5.76526 27.3528 5.77561 27.4379C5.7963 27.5868 5.77561 27.4486 5.77561 27.4273C5.78595 27.4911 5.79632 27.5549 5.79632 27.6294C6.00322 29.2353 6.12735 30.8412 6.18942 32.4578C6.22046 33.1491 6.2205 33.8298 6.17912 34.5211C6.16877 34.6806 6.15838 34.8401 6.13769 34.9996C6.12735 35.0847 6.11702 35.1698 6.10668 35.2549C6.09633 35.34 6.12737 35.4038 6.10668 35.2336C6.11702 35.2868 6.08597 35.3506 6.08597 35.4038C6.03424 35.7335 5.97217 36.0525 5.87906 36.3716C5.83768 36.5311 5.78596 36.68 5.73424 36.8395C5.71354 36.9034 5.67219 36.9778 5.66185 37.0416C5.70323 36.8821 5.7032 36.9565 5.68251 36.9991C5.66182 37.0522 5.64112 37.0948 5.62043 37.148C5.47559 37.4564 5.31008 37.7435 5.11351 38.0201C5.06179 38.0839 5.02042 38.1583 4.96869 38.2221C4.97904 38.2009 5.07216 38.0839 4.9894 38.1902C4.96871 38.2221 4.948 38.254 4.91696 38.2753C4.81351 38.4136 4.69969 38.5518 4.58589 38.6901C4.36864 38.9453 4.13073 39.2006 3.89278 39.4452C3.63415 39.7111 3.36514 39.9557 3.08582 40.2003C2.94098 40.3279 2.79617 40.4555 2.64099 40.5725C2.60995 40.6044 2.56857 40.6363 2.53753 40.6576C2.51684 40.6683 2.3927 40.7746 2.48581 40.7002C2.58926 40.6257 2.44443 40.7321 2.43408 40.7427C2.3927 40.7746 2.34099 40.8065 2.29961 40.8491C1.67889 41.317 1.03748 41.753 0.385723 42.1678C0.106399 42.3486 -0.079858 42.7315 0.0339408 43.0718C0.137394 43.3909 0.437429 43.678 0.778826 43.6568C1.43058 43.6142 2.08234 43.5823 2.74444 43.6142C3.17895 43.6355 3.61345 43.678 4.03761 43.7312C4.27555 43.7525 4.50313 43.7738 4.74107 43.795C4.81349 43.795 4.88592 43.8057 4.95833 43.8163C4.97903 43.8163 4.98937 43.8163 5.01006 43.8269C5.09282 43.8376 5.07212 43.8376 4.94798 43.8163C4.96867 43.8269 5.02044 43.8269 5.04113 43.8269C5.20665 43.8588 5.37216 43.8908 5.53768 43.9439C5.68252 43.9865 5.82736 44.0396 5.96185 44.0928C6.00323 44.1035 6.03428 44.1247 6.07566 44.1354C6.17912 44.1779 5.88942 44.0503 6.0446 44.1247C6.12736 44.1673 6.19981 44.1992 6.28257 44.2417C6.57224 44.3906 6.84121 44.5608 7.09984 44.7522C7.13088 44.7735 7.1619 44.8054 7.19294 44.8266C7.30674 44.9117 7.16191 44.8054 7.15157 44.7948C7.1826 44.8479 7.29638 44.9117 7.33776 44.9543C7.47225 45.0713 7.59642 45.1882 7.72056 45.3052C7.9585 45.5392 8.19646 45.7945 8.40336 46.0497C8.50682 46.1773 8.61026 46.305 8.70337 46.4326C8.81717 46.5815 8.59992 46.2837 8.70337 46.4326C8.72406 46.4645 8.74476 46.4858 8.76545 46.5177C8.82752 46.6027 8.88957 46.6878 8.94129 46.7729C9.13785 47.0601 9.32406 47.3472 9.49993 47.645C9.88271 48.2938 10.2345 48.9744 10.5552 49.6551C10.731 50.0273 10.9069 50.4102 11.0724 50.7824C11.1138 50.8675 11.1449 50.9526 11.1863 51.0377C11.2069 51.0802 11.2276 51.1334 11.2483 51.1759C11.3001 51.3142 11.2483 51.1866 11.238 51.1547C11.3311 51.3674 11.4035 51.5801 11.4863 51.7928C12.1587 53.537 12.676 55.3343 13.0381 57.1742C13.1105 57.5678 13.5347 57.7911 13.8864 57.7485C14.3002 57.6954 14.5175 57.3657 14.5588 56.9615C14.9209 53.7603 14.1347 50.5804 14.3209 47.3685C14.3312 47.1132 14.3623 46.858 14.383 46.6134C14.3933 46.5496 14.4037 46.4858 14.4037 46.4219C14.414 46.3156 14.3726 46.6453 14.3933 46.4858C14.3933 46.4539 14.4037 46.4326 14.4037 46.4007C14.4244 46.2624 14.445 46.1242 14.4657 45.9859C14.5588 45.4435 14.6829 44.9011 14.8278 44.38C14.9105 44.1035 14.9933 43.8269 15.0864 43.5504C15.1278 43.4228 15.1692 43.3058 15.2209 43.1888C15.2416 43.125 15.2726 43.0612 15.2933 42.9974C15.345 42.8804 15.2727 43.0506 15.2623 43.0612C15.283 43.0187 15.2933 42.9761 15.314 42.9336C15.5313 42.4337 15.7796 41.9445 16.0796 41.4872C16.152 41.3702 16.2348 41.2532 16.3176 41.1362C16.3279 41.1149 16.421 40.998 16.3279 41.1149C16.2451 41.2319 16.3382 41.1043 16.3589 41.083C16.4003 41.0299 16.4417 40.9767 16.4934 40.9235C16.6693 40.7108 16.8658 40.5087 17.0727 40.3279C17.1245 40.2747 17.1866 40.2322 17.2383 40.1897C17.3107 40.1258 17.0934 40.296 17.1762 40.2428C17.2072 40.2216 17.2383 40.2003 17.2693 40.1684C17.3831 40.0939 17.4866 40.0195 17.6107 39.9451C17.7245 39.8812 17.8383 39.8174 17.9521 39.7642C17.9728 39.7536 18.0969 39.7004 17.9625 39.7536C17.8383 39.8068 17.9418 39.7643 17.9728 39.7536C18.0452 39.7217 18.1176 39.7004 18.19 39.6792C18.5004 39.5728 18.7797 39.2644 18.759 38.9134C18.7383 38.5518 18.5314 38.2647 18.19 38.1477C16.8658 37.6904 15.4796 37.4989 14.145 37.0629C13.9898 37.0097 13.8347 36.9565 13.6795 36.8927C13.6485 36.8821 13.6174 36.8715 13.5863 36.8608C13.5657 36.8502 13.4312 36.7757 13.545 36.8395C13.6588 36.9034 13.5243 36.8289 13.5036 36.8183C13.4622 36.797 13.4105 36.7757 13.3691 36.7545C13.0691 36.6162 12.7898 36.446 12.5208 36.2546C12.4794 36.2227 12.438 36.1908 12.3966 36.1695C12.3035 36.1057 12.4174 36.2014 12.438 36.2014C12.407 36.2121 12.2725 36.0632 12.2414 36.0313C12.107 35.9036 11.9725 35.776 11.8483 35.6378C11.7449 35.5208 11.6414 35.3931 11.538 35.2655C11.4863 35.2017 11.4345 35.1379 11.3828 35.0741C11.5173 35.2336 11.4345 35.1379 11.4035 35.0953C11.3725 35.0528 11.3414 34.9996 11.3001 34.9571C10.9276 34.436 10.6172 33.8829 10.3379 33.3086C10.2655 33.1597 10.2034 33.0215 10.1414 32.8726C10.1103 32.8088 10.0793 32.745 10.0586 32.6705C10.0379 32.6386 10.0276 32.5961 10.0069 32.5642C9.94482 32.4153 10.069 32.713 10.0069 32.5748C9.88275 32.2664 9.76891 31.9473 9.65511 31.6389C9.18957 30.3201 8.82749 28.9588 8.42402 27.6187C7.86538 25.8107 7.21363 24.0346 6.36531 22.3543C6.1791 21.982 5.64116 21.8438 5.29976 22.0671C4.92733 22.3117 4.82386 22.7584 5.02042 23.1625C5.22732 23.5667 5.42391 23.9815 5.61012 24.3962C5.69288 24.5877 5.78598 24.7791 5.8584 24.9705C5.84805 24.9493 5.79632 24.811 5.84804 24.9493C5.86873 24.9918 5.88944 25.045 5.91013 25.0875C5.95151 25.1939 5.99286 25.3002 6.03424 25.396C6.32391 26.1404 6.58255 26.8955 6.8205 27.6613C7.255 29.0332 7.62745 30.4265 8.08265 31.7878C8.51715 33.0853 9.04478 34.3722 9.79999 35.5101C10.2035 36.1163 10.6586 36.7332 11.2173 37.2011C11.8173 37.7223 12.4794 38.0945 13.2139 38.3817C14.683 38.9666 16.2762 39.1368 17.7659 39.6473C17.7659 39.1368 17.7659 38.6263 17.7659 38.1051C15.5106 38.8496 14.2174 41.1575 13.5036 43.3271C13.1312 44.4438 12.9036 45.6137 12.7898 46.7835C12.6449 48.2938 12.7484 49.8253 12.8725 51.3355C13.0174 53.1966 13.1932 55.0578 12.9863 56.919C13.4933 56.8446 14.0002 56.7807 14.5071 56.7063C14.1761 55.0365 13.7105 53.3881 13.1312 51.7928C12.5415 50.1868 11.8483 48.6022 11.0104 47.1132C10.2965 45.8583 9.43789 44.6352 8.34128 43.7099C7.74125 43.2101 7.1205 42.8059 6.39633 42.5188C5.75492 42.2529 5.08249 42.1785 4.3997 42.1146C3.90312 42.0721 3.41691 42.0083 2.92033 41.9764C2.18581 41.9339 1.46162 41.9658 0.727099 42.0083C0.861588 42.5082 0.985712 42.9974 1.1202 43.4972C2.34095 42.7209 3.53068 41.87 4.59625 40.8597C5.65147 39.8493 6.63431 38.6901 7.16192 37.2969C7.66884 35.9568 7.7516 34.4572 7.72056 33.0215C7.68953 31.3943 7.56535 29.7671 7.37913 28.1611C7.16188 26.2681 6.85152 24.375 6.44805 22.5138C6.35495 22.1097 5.87909 21.8331 5.49631 21.9608C5.13423 22.1416 4.90661 22.5457 5.01006 22.9817Z"
    fill="#1e40af" />
  <path
    d="M45.7087 44.4012C45.8535 44.9862 45.9674 45.5711 46.0501 46.1774C46.0398 46.1029 46.0294 46.0391 46.0191 45.9646C46.1742 47.1452 46.195 48.3576 46.0398 49.5381C46.0501 49.4637 46.0604 49.3998 46.0708 49.3254C45.9466 50.2826 45.7087 51.2185 45.3466 52.1012C45.3777 52.0374 45.3984 51.9736 45.4294 51.9098C45.2535 52.3352 45.057 52.75 44.819 53.1435C44.7052 53.3455 44.5707 53.5476 44.4362 53.7391C44.3742 53.8241 44.3121 53.9092 44.25 53.9943C44.4156 53.771 44.2811 53.9518 44.2397 54.0049C44.1983 54.0581 44.1569 54.1113 44.1155 54.1538C43.8259 54.5154 43.4948 54.8451 43.1534 55.1536C43.0707 55.228 42.9776 55.3024 42.8948 55.3769C42.8431 55.4194 42.6672 55.5577 42.8844 55.3875C42.8327 55.4194 42.7913 55.462 42.7396 55.5045C42.5431 55.6534 42.3362 55.7917 42.1293 55.9299C41.7361 56.1745 41.343 56.3872 40.9188 56.568C40.9809 56.5361 41.043 56.5149 41.105 56.483C40.805 56.6106 40.505 56.7382 40.205 56.8765C39.9981 56.9722 39.8016 57.0573 39.6464 57.2168C39.2946 57.5571 39.3567 58.1421 39.7188 58.4292C39.905 58.5781 40.1533 58.6207 40.3705 58.6845C40.743 58.8015 41.1154 58.9397 41.4775 59.0992C41.4154 59.0673 41.3533 59.0461 41.2913 59.0142C42.2741 59.4502 43.2258 59.9926 44.0742 60.652C44.0948 60.6733 44.1155 60.6839 44.1362 60.7052C43.9604 60.5669 44.0328 60.6307 44.0742 60.652C44.1259 60.6945 44.1673 60.7264 44.219 60.769C44.3121 60.8434 44.4052 60.9285 44.488 61.003C44.6432 61.1519 44.7983 61.3007 44.9432 61.4709C45.0156 61.5454 45.0776 61.6304 45.1501 61.7155C45.1811 61.7581 45.2121 61.8006 45.2432 61.8431C45.2742 61.8857 45.326 61.9601 45.1811 61.7687C45.2018 61.8006 45.2225 61.8219 45.2432 61.8538C45.3673 62.024 45.4915 62.2048 45.5949 62.3962C45.8639 62.8322 46.0811 63.3002 46.2881 63.7788C46.257 63.715 46.2363 63.6511 46.2053 63.5873C46.9502 65.4166 47.2915 67.3841 47.6226 69.3304C47.7054 69.8515 47.7985 70.3727 47.8916 70.8938C47.9226 71.0746 48.0985 71.2873 48.2433 71.3724C48.3985 71.4575 48.564 71.4894 48.7399 71.4681C49.1227 71.4149 49.402 71.0852 49.4124 70.6811C49.4434 69.7984 49.4744 68.9156 49.5055 68.0223C49.5365 67.1714 49.5365 66.31 49.6503 65.4591C49.6399 65.5336 49.6296 65.5974 49.6193 65.6719C49.7227 64.938 49.8779 64.2042 50.0641 63.4916C50.1572 63.1407 50.2607 62.7897 50.3641 62.4387C50.4572 62.1516 50.54 61.8538 50.6538 61.5666C50.6228 61.6304 50.602 61.6943 50.571 61.7581C50.7158 61.4177 50.9021 61.0987 51.1193 60.8009C51.1504 60.7584 51.1814 60.7158 51.2124 60.6626C51.2849 60.5669 51.0779 60.8328 51.1917 60.6839C51.2642 60.5882 51.3366 60.5031 51.409 60.4074C51.5435 60.2372 51.6883 60.0777 51.8332 59.9182C52.1435 59.5885 52.4746 59.2694 52.816 58.961C52.8987 58.8865 52.9815 58.8227 53.0643 58.7483C53.1056 58.7164 53.147 58.6845 53.1884 58.6419C53.2091 58.6207 53.2298 58.5994 53.2608 58.5887C53.2298 58.61 53.1057 58.7164 53.1988 58.6313C53.3643 58.5037 53.5402 58.376 53.7057 58.2484C54.0471 58.0144 54.3988 57.7911 54.7816 57.6316C54.7195 57.6635 54.6575 57.6847 54.5954 57.7167C54.6264 57.706 54.6575 57.6954 54.6885 57.6741C54.8747 57.5997 55.0506 57.4933 55.154 57.3125C55.2368 57.153 55.2678 56.9828 55.2471 56.802C55.1954 56.4085 54.8747 56.1107 54.4816 56.1107C54.3057 56.1107 54.1298 56.1001 53.9643 56.0788C54.0367 56.0895 54.0988 56.1001 54.1712 56.1107C53.8298 56.0576 53.4884 55.9618 53.1677 55.8236C53.2298 55.8555 53.2919 55.8767 53.354 55.9087C53.1574 55.8236 52.9711 55.7278 52.7953 55.6109C52.7022 55.5577 52.6194 55.4939 52.5263 55.4407C52.4849 55.4088 52.4332 55.3769 52.3918 55.345C52.3711 55.3343 52.3504 55.3131 52.3297 55.3024C52.3194 55.2918 52.3091 55.2812 52.2987 55.2812C52.2263 55.2174 52.4021 55.3662 52.3918 55.3556C52.0401 55.0578 51.709 54.7388 51.3986 54.3878C51.3262 54.2921 51.2435 54.207 51.1711 54.1113C51.14 54.0687 51.0987 54.0156 51.0676 53.973C50.9849 53.8667 51.1504 54.0794 51.1193 54.0368C51.0987 54.0049 51.078 53.9837 51.0573 53.9518C50.9021 53.7497 50.7676 53.537 50.6227 53.3243C50.3331 52.8776 50.0745 52.4096 49.8365 51.931C49.5572 51.378 49.2986 50.8037 49.0606 50.2294C49.0917 50.2932 49.1123 50.357 49.1434 50.4208C48.4502 48.7298 47.9123 46.9644 47.4674 45.1776C47.364 44.7629 47.2709 44.3587 47.1778 43.9439C47.0847 43.5398 46.6087 43.2633 46.226 43.3909C45.8328 43.5611 45.6052 43.9652 45.7087 44.4012C45.926 45.3691 46.1639 46.3369 46.4432 47.2941C46.7639 48.4108 47.1364 49.5275 47.5606 50.6123C48.0158 51.7502 48.5227 52.8776 49.1641 53.9198C49.7331 54.8558 50.4158 55.7704 51.2538 56.4617C51.6573 56.7914 52.0815 57.0998 52.5573 57.3125C53.085 57.5465 53.6022 57.6954 54.1816 57.7486C54.2954 57.7592 54.4091 57.7592 54.5126 57.7592C54.4402 57.2381 54.3781 56.7169 54.3057 56.1958C53.4574 56.5361 52.7228 57.0679 52.0194 57.6528C51.3159 58.2378 50.6538 58.8972 50.0952 59.631C49.8158 59.9926 49.5572 60.3542 49.3503 60.769C49.1123 61.2582 48.9572 61.79 48.802 62.3111C48.4296 63.5767 48.1295 64.8636 48.0364 66.1824C47.9847 66.9268 47.9744 67.6819 47.9537 68.4264C47.933 69.1921 47.9019 69.9473 47.8812 70.713C48.3881 70.6385 48.8951 70.5747 49.402 70.5003C49.0296 68.3839 48.7502 66.2355 48.0881 64.1936C47.7467 63.1619 47.3226 62.1303 46.7019 61.2369C46.3915 60.7796 46.0398 60.3542 45.6467 59.9713C45.1915 59.5459 44.6845 59.1631 44.1673 58.8227C43.5983 58.4399 42.9983 58.0995 42.3775 57.8124C42.0258 57.6422 41.6637 57.4933 41.2913 57.3551C40.9913 57.2487 40.6912 57.1636 40.3912 57.0679C40.4533 57.0998 40.5154 57.1211 40.5775 57.153C40.6706 57.2487 40.7533 57.3338 40.8464 57.4295C40.8774 57.4933 40.8981 57.5571 40.9292 57.6209C40.9395 57.6954 40.9499 57.7592 40.9602 57.8336C40.9499 57.9081 40.9395 57.9719 40.9292 58.0463C40.8981 58.1102 40.8774 58.174 40.8464 58.2378C40.7843 58.3335 40.7016 58.4505 40.6085 58.493C40.6292 58.4824 40.6395 58.4718 40.6602 58.4611C40.7119 58.4292 40.7636 58.4079 40.8154 58.376C40.9602 58.3016 41.1154 58.2378 41.2706 58.174C41.2085 58.2059 41.1464 58.2271 41.0844 58.2591C41.5085 58.0783 41.943 57.8975 42.3568 57.6741C42.8327 57.4189 43.2776 57.1211 43.7017 56.7914C44.6018 56.0788 45.3777 55.2386 45.988 54.2602C47.1674 52.399 47.6847 50.1443 47.695 47.9428C47.695 46.624 47.5191 45.2946 47.2088 44.0184C47.1053 43.6142 46.6502 43.3271 46.257 43.4654C45.8432 43.5611 45.5949 43.9652 45.7087 44.4012Z"
    fill="#1e40af" />
  <path
    d="M56.1887 16.1858C56.2715 16.5793 56.3439 16.9728 56.406 17.3663C56.437 17.5578 56.4681 17.7598 56.4991 17.9619C56.5094 18.0257 56.5611 18.3235 56.5198 18.0895C56.5405 18.2065 56.5508 18.3235 56.5612 18.4299C56.6543 19.2381 56.7267 20.0571 56.7681 20.876C56.8509 22.5245 56.8405 24.1836 56.7267 25.8214C56.6956 26.2255 56.6646 26.6297 56.6336 27.0445C56.6129 27.2253 56.6025 27.4167 56.5818 27.5975C56.5715 27.6826 56.5612 27.7677 56.5508 27.8634C56.5508 27.9059 56.5405 27.9485 56.5405 27.9804C56.5301 28.0442 56.5405 28.0123 56.5508 27.8846C56.5508 27.9166 56.5405 27.9485 56.5405 27.9804C56.4474 28.661 56.3025 29.331 56.1267 29.9904C56.0336 30.3201 55.9301 30.6498 55.8163 30.9689C55.7542 31.1284 55.7025 31.2879 55.6404 31.4475C55.6301 31.49 55.6094 31.5219 55.599 31.5645C55.6611 31.3624 55.6301 31.4794 55.6094 31.5325C55.568 31.6176 55.537 31.7133 55.4956 31.7984C55.2163 32.4259 54.8956 33.0215 54.5128 33.5958C54.4093 33.7553 54.2956 33.9149 54.1818 34.0638C54.1507 34.1063 54.0886 34.1595 54.2128 34.0212C54.1817 34.0638 54.1404 34.1063 54.1093 34.1488C54.0472 34.2233 53.9955 34.2977 53.9334 34.3722C53.6955 34.6593 53.4472 34.9252 53.1782 35.1911C53.0437 35.3187 52.9093 35.4463 52.7644 35.574C52.692 35.6378 52.6092 35.691 52.5472 35.7548C52.6816 35.6165 52.63 35.691 52.5782 35.7335C52.5368 35.7654 52.4954 35.7973 52.4437 35.8292C52.1437 36.0526 51.823 36.2653 51.492 36.4461C51.2023 36.6056 51.0367 37.0204 51.1402 37.3501C51.1816 37.4777 51.2437 37.6053 51.3368 37.701C51.4506 37.8286 51.7092 37.9563 51.8851 37.935C52.5782 37.8499 53.2714 37.8074 53.9645 37.8287C54.3059 37.8393 54.6369 37.8606 54.9783 37.8925C55.0611 37.9031 55.1542 37.9137 55.2369 37.9244C55.299 37.935 55.6094 37.9775 55.3404 37.935C55.5163 37.9669 55.6922 37.9882 55.868 38.0201C56.5405 38.1371 57.2129 38.3072 57.8647 38.5199C58.1957 38.6263 58.5268 38.7433 58.8475 38.8816C58.9199 38.9135 58.982 38.9347 59.0544 38.9666C59.0958 38.9879 59.1372 38.9985 59.1785 39.0198C58.9613 38.9347 59.1061 38.9879 59.1578 39.0092C59.3233 39.0836 59.4786 39.1581 59.6441 39.2325C60.2751 39.5409 60.8855 39.8813 61.4649 40.2641C61.7545 40.4556 62.0339 40.647 62.3028 40.8597C62.3753 40.9129 62.4476 40.9661 62.5201 41.0192C62.5511 41.0512 62.5925 41.0724 62.6235 41.1043C62.458 40.9767 62.5304 41.0299 62.5718 41.0618C62.727 41.1894 62.8718 41.3064 63.0167 41.434C63.5339 41.8807 64.0305 42.3699 64.4857 42.8804C64.7236 43.1463 64.9512 43.4228 65.1788 43.71C65.2202 43.7738 65.2719 43.827 65.3133 43.8908C65.1478 43.6887 65.3443 43.9333 65.3754 43.9865C65.4788 44.1354 65.5823 44.2843 65.6857 44.4332C66.1203 45.0819 66.5134 45.7626 66.8444 46.4645C66.9272 46.6453 67.0099 46.8261 67.0824 46.9963C67.1444 47.1452 67.0099 46.8155 67.072 46.975C67.0927 47.0282 67.1134 47.092 67.1341 47.1452C67.1651 47.2303 67.1962 47.3153 67.2272 47.4004C67.372 47.7833 67.4962 48.1768 67.5996 48.5703C67.7134 48.9745 68.1583 49.2616 68.5514 49.1233C68.7376 49.0595 68.9239 48.9425 69.017 48.7617C69.1204 48.5597 69.1307 48.3682 69.0997 48.1449C69.0997 48.1343 69.0687 47.9322 69.0894 48.0598C69.11 48.1874 69.079 47.996 69.079 47.9854C69.0687 47.9109 69.0583 47.8365 69.048 47.762C69.0273 47.5919 69.0066 47.4217 68.9963 47.2515C68.9756 46.9856 68.9549 46.7198 68.9445 46.4539C68.9342 46.0391 68.9445 45.6137 68.9342 45.1989C68.9342 44.6778 68.9032 44.1673 68.8514 43.6462C68.81 43.2527 68.7583 42.8591 68.7066 42.4656C68.6756 42.2317 68.6445 41.9977 68.6135 41.7531C68.6032 41.7105 68.6031 41.668 68.5928 41.6255C68.5618 41.4234 68.6135 41.7531 68.5928 41.6255C68.5825 41.5085 68.5618 41.4021 68.5514 41.2851C68.4583 40.53 68.3756 39.7643 68.3549 38.9985C68.3445 38.605 68.3445 38.2222 68.3755 37.8287C68.3859 37.6479 68.3962 37.4564 68.4273 37.2756C68.3859 37.499 68.448 37.1693 68.448 37.1267C68.4687 37.0204 68.479 36.9247 68.4997 36.8183C68.5618 36.4886 68.6549 36.1695 68.7583 35.8611C68.7997 35.7229 68.8514 35.5846 68.9032 35.4463C68.9238 35.3825 68.9446 35.3187 68.9756 35.2655C68.9859 35.223 69.0066 35.1911 69.017 35.1486C69.0894 34.9784 68.9859 35.2336 69.017 35.1592C69.2653 34.5955 69.5446 34.0531 69.8756 33.5426C69.9687 33.4044 70.1032 33.2555 70.186 33.1066C70.1756 33.1172 70.0722 33.2555 70.155 33.1491C70.186 33.1066 70.217 33.0747 70.2481 33.0321C70.2998 32.9683 70.3515 32.9045 70.4032 32.8407C70.6205 32.5854 70.8481 32.3408 71.0964 32.1069C71.2205 31.9899 71.355 31.8729 71.4895 31.7559C71.5929 31.6708 71.4585 31.7878 71.4481 31.7878C71.4895 31.7665 71.5205 31.724 71.5619 31.7027C71.6343 31.6495 71.7068 31.5964 71.7688 31.5432C72.0482 31.3411 72.3378 31.171 72.6482 31.0114C72.9379 30.8625 73.1034 30.4265 72.9999 30.1074C72.8861 29.7565 72.6068 29.5438 72.255 29.5225C71.893 29.5012 71.5309 29.4693 71.1688 29.4268C71.086 29.4161 71.0033 29.4055 70.9205 29.3949C70.8791 29.3949 70.8377 29.3736 70.7963 29.3736C71.0032 29.363 70.8688 29.3842 70.8067 29.3736C70.6205 29.3417 70.4343 29.3204 70.2584 29.2885C69.5549 29.1609 68.8618 29.0014 68.1893 28.7993C67.8479 28.6929 67.5169 28.5866 67.1858 28.459C67.0306 28.3951 66.8754 28.342 66.7099 28.2781C66.6892 28.2675 66.472 28.1824 66.472 28.1824C66.503 28.1931 66.5341 28.2143 66.5651 28.225C66.5341 28.2143 66.503 28.1931 66.472 28.1824C66.4306 28.1612 66.3789 28.1399 66.3375 28.1186C65.6858 27.8208 65.065 27.4805 64.465 27.087C64.165 26.8849 63.865 26.6829 63.5857 26.4595C63.5546 26.4382 63.5339 26.417 63.5029 26.3957C63.6787 26.5233 63.5339 26.4276 63.5029 26.3957C63.4408 26.3425 63.3684 26.2894 63.3063 26.2362C63.1615 26.1192 63.027 25.9916 62.8925 25.8639C62.6339 25.6193 62.3753 25.3641 62.1373 25.0982C61.889 24.8217 61.6717 24.5239 61.4338 24.2474C61.5786 24.4175 61.4028 24.2048 61.3718 24.1517C61.32 24.0772 61.2683 24.0134 61.2166 23.939C61.1028 23.7794 60.9993 23.6199 60.8959 23.4604C60.689 23.1413 60.5027 22.8116 60.3165 22.4819C59.9544 21.8225 59.6337 21.1419 59.3337 20.4399C59.3234 20.408 59.3027 20.3761 59.2923 20.3442C59.282 20.3123 59.2613 20.2804 59.251 20.2485C59.2924 20.3548 59.3027 20.3655 59.2716 20.291C59.2303 20.1953 59.1889 20.089 59.1475 19.9932C59.0751 19.8018 59.0027 19.6104 58.9303 19.4189C58.7854 19.0254 58.6406 18.6213 58.5061 18.2278C58.2268 17.4089 57.9681 16.59 57.7095 15.771C57.5853 15.3775 57.1612 15.0797 56.7577 15.218C56.3439 15.335 56.0543 15.7604 56.1887 16.1858C57.1198 19.1743 58.0923 22.2586 59.9027 24.8217C60.8234 26.1298 61.9304 27.2572 63.2339 28.1824C64.465 29.0545 65.8409 29.7139 67.2583 30.1925C68.8721 30.7349 70.5584 31.0327 72.255 31.1284C72.1205 30.6286 71.9964 30.1393 71.8619 29.6395C69.5135 30.8413 67.879 33.2342 67.1652 35.7973C66.7307 37.3607 66.7513 38.9879 66.9272 40.5832C66.9789 41.0299 67.0307 41.4659 67.0927 41.9126C67.1031 42.019 67.1237 42.1147 67.1341 42.221C67.1444 42.2636 67.1445 42.3061 67.1548 42.3487C67.1858 42.5507 67.1341 42.221 67.1548 42.3593C67.1858 42.5614 67.2065 42.7741 67.2375 42.9761C67.31 43.6036 67.3824 44.2311 67.3927 44.8586C67.4031 45.3372 67.3927 45.8158 67.4031 46.2944C67.4238 47.0495 67.5065 47.8046 67.61 48.5597C68.1066 48.4214 68.6031 48.2725 69.1101 48.1343C68.3135 45.2415 66.6582 42.6252 64.4857 40.6364C62.3132 38.6369 59.6234 37.1799 56.7681 36.5737C55.1749 36.2334 53.5197 36.127 51.9058 36.3397C52.0403 36.8396 52.1644 37.3288 52.2989 37.8287C54.8438 36.3929 56.5612 33.8085 57.4612 31.0221C57.9267 29.5757 58.1337 28.0761 58.2475 26.5552C58.3819 24.8749 58.4233 23.1945 58.3613 21.5141C58.2888 19.5891 58.0923 17.6641 57.7095 15.7817C57.6267 15.3775 57.1405 15.101 56.7577 15.2286C56.3129 15.3456 56.106 15.7498 56.1887 16.1858Z"
    fill="#1e40af" />
</svg>