<svg width="74" height="72" fill="none" xmlns="http://www.w3.org/2000/svg"><path d="M33.74 1.36a28.015 28.015 0 01-.063 4.371c-.02.181-.03.362-.062.532l-.031.255c-.01.128.031-.202 0-.01-.01.053-.01.117-.02.17-.052.361-.114.723-.176 1.085a21.61 21.61 0 01-.518 2.148c-.103.33-.207.66-.32.99-.063.159-.114.318-.187.478-.01.032-.051.085-.051.127 0-.106.062-.138.02-.063-.041.085-.072.17-.114.255a11.53 11.53 0 01-.879 1.616c-.072.117-.155.234-.238.351-.041.064-.093.128-.134.192a.325.325 0 00-.052.074c.103-.191.041-.053.01-.01-.186.244-.393.489-.6.723-.207.223-.414.436-.641.648a9.289 9.289 0 01-.331.288l-.155.127c-.083.064.155-.127.03-.021-.04.032-.072.053-.113.085a8.948 8.948 0 01-.838.564c-.29.17-.59.297-.89.457.01-.01.176-.074.062-.032-.041.021-.083.032-.124.053-.083.032-.165.064-.258.096a6.24 6.24 0 01-.476.149c-.321.096-.652.16-.983.202-.176.021-.383.213-.466.362a.87.87 0 00-.093.51c.052.383.373.691.766.691.755-.01 1.51-.01 2.265.043.176.01.342.032.518.053.01 0 .196.032.072.01-.135-.02.052.011.072.011.093.011.187.032.28.053.372.075.734.17 1.086.288.062.02.134.053.197.074.03.01.072.032.103.043.062.02.124.085-.041-.022.124.085.279.128.413.202.26.139.507.288.735.458.062.042.124.085.186.138.02.021.052.043.073.053.103.075-.042-.032-.052-.042.103.106.238.202.352.298.227.212.444.425.651.659.093.106.187.213.27.319.04.053.082.106.134.17.062.085-.114-.16-.02-.032.03.043.05.075.082.117.176.245.331.5.486.755.155.266.3.543.435.82l.186.414c.01.032.02.064.041.085a.691.691 0 01-.01-.032c.03.085.062.16.093.245.238.638.414 1.287.548 1.946.042.191.073.372.104.564.01.074.02.16.041.234.01.064.02.117.02.18 0-.031-.01-.063-.01-.095 0 .042.01.074.01.117.042.383.084.755.104 1.138.114 1.755.01 3.52-.103 5.264-.02.394.31.734.672.787.383.053.735-.191.849-.574.817-2.67.92-5.488 1.53-8.2.135-.606.29-1.212.497-1.808.042-.128.093-.255.135-.372.02-.064.062-.128.082-.202 0 .01-.072.18-.02.064.01-.032.03-.075.041-.107.114-.255.228-.5.352-.744.248-.49.538-.957.859-1.393a.325.325 0 00.051-.075c-.103.16-.072.096-.041.053l.124-.16c.083-.106.176-.212.27-.318.175-.202.361-.394.547-.564.114-.106.218-.202.342-.298.02-.021.041-.032.072-.053-.186.149-.051.043-.02.01.062-.042.113-.084.175-.127.228-.16.466-.308.714-.436.062-.032.135-.064.197-.096.03-.01.051-.021.083-.032.144-.063-.156.064-.021.011.134-.053.269-.106.414-.149.145-.042.279-.085.424-.117.062-.01.134-.032.196-.042.063-.011.352-.054.083-.022.207-.032.404-.064.548-.234a.893.893 0 00.218-.457c.051-.362-.176-.798-.559-.872-.3-.064-.6-.138-.9-.234-.134-.043-.259-.096-.393-.138a1.84 1.84 0 00-.217-.085c.238.095-.031-.022-.093-.043a9.113 9.113 0 01-1.635-1.01l.052.042c-.052-.053-.124-.095-.187-.149-.124-.106-.237-.202-.351-.308a8.111 8.111 0 01-.662-.68 19.672 19.672 0 01-.6-.713.585.585 0 00-.073-.096c.01.01.114.149.031.043-.051-.064-.093-.128-.145-.192a8.908 8.908 0 01-.269-.393 13.96 13.96 0 01-.91-1.638c-.062-.139-.124-.266-.186-.404-.02-.032-.031-.075-.042-.107-.051-.117.021.043.021.053-.03-.095-.072-.18-.103-.265-.114-.288-.218-.585-.321-.883-.435-1.308-.755-2.659-1.014-4.02-.145-.755-.28-1.521-.393-2.287l-.155-1.074c-.02-.18-.052-.351-.073-.532-.01-.064-.051-.361-.01-.096l-.031-.276c-.031-.223-.072-.404-.228-.564-.134-.138-.351-.244-.548-.234-.196.01-.414.075-.548.234-.135.17-.259.383-.228.585.362 2.797.776 5.626 1.614 8.317.807 2.563 2.12 5.01 4.18 6.721 1.169.968 2.514 1.713 3.993 2 .072-.521.134-1.042.207-1.563a6.554 6.554 0 00-1.831.52 6.486 6.486 0 00-1.47.926c-.89.713-1.624 1.638-2.203 2.627-.61 1.031-1.055 2.17-1.355 3.34-.362 1.382-.57 2.807-.776 4.222-.228 1.595-.466 3.19-.941 4.732.506.075 1.013.139 1.52.213.197-3.148.373-6.445-.662-9.476-.858-2.531-2.545-4.903-4.997-5.966-1.645-.713-3.445-.734-5.203-.713.072.521.134 1.042.207 1.563 2.607-.372 4.83-2.105 6.352-4.232 1.686-2.361 2.42-5.329 2.772-8.2.207-1.67.248-3.35.135-5.02-.031-.415-.342-.82-.776-.798-.393.01-.797.34-.766.787zM5.01 22.982c.176.797.331 1.606.466 2.414.072.393.134.787.186 1.18.03.203.062.394.083.596l.03.266c.021.149 0 .01 0-.01.01.063.021.127.021.201.207 1.606.331 3.212.393 4.829a19.61 19.61 0 01-.01 2.063c-.01.16-.02.32-.041.479l-.031.255c-.01.085.02.149 0-.021.01.053-.021.117-.021.17-.052.33-.114.648-.207.968-.041.16-.093.308-.145.468-.02.063-.062.138-.072.202.041-.16.041-.086.02-.043-.02.053-.04.096-.062.149-.144.308-.31.595-.506.872-.052.064-.094.138-.145.202.01-.021.103-.138.02-.032a.285.285 0 01-.072.085c-.103.139-.217.277-.331.415a13.718 13.718 0 01-1.5 1.51c-.145.128-.29.255-.445.372a.731.731 0 01-.103.086c-.021.01-.145.117-.052.042.103-.074-.042.032-.052.043-.041.032-.093.063-.134.106-.621.468-1.263.904-1.914 1.319-.28.18-.466.563-.352.904.103.319.403.606.745.585.652-.043 1.303-.075 1.965-.043.435.022.87.064 1.294.117l.703.064c.072 0 .145.01.217.021.021 0 .031 0 .052.01.083.012.062.012-.062-.01.02.01.072.01.093.01.166.033.331.065.497.118.145.042.29.096.424.149.041.01.072.032.114.042.103.043-.187-.085-.031-.01.082.042.155.074.238.117.29.149.558.319.817.51.03.021.062.053.093.075.114.085-.031-.022-.041-.032.03.053.144.117.186.16.134.116.258.233.383.35a9.15 9.15 0 01.982 1.128c.114.148-.103-.15 0 0 .021.032.042.053.062.085.063.085.125.17.176.255.197.287.383.574.559.872.383.649.735 1.33 1.055 2.01.176.372.352.755.517 1.127.042.086.073.17.114.256.02.042.042.095.062.138.052.138 0 .01-.01-.021.093.212.165.425.248.638a32.266 32.266 0 011.552 5.381c.072.394.497.617.848.575.414-.054.632-.383.673-.788.362-3.2-.424-6.38-.238-9.593.01-.255.041-.51.062-.755.01-.063.02-.127.02-.191.011-.106-.03.223-.01.064 0-.032.01-.053.01-.085l.063-.415a16.37 16.37 0 01.362-1.606c.083-.277.165-.553.258-.83.042-.127.083-.244.135-.361.02-.064.052-.128.072-.192.052-.117-.02.054-.03.064.02-.042.03-.085.051-.127a9.615 9.615 0 011.004-1.798c.01-.021.103-.138.01-.021-.083.117.01-.01.03-.032.042-.053.084-.106.135-.16.176-.212.373-.414.58-.595.052-.053.114-.096.165-.138.073-.064-.145.106-.062.053a.567.567 0 00.093-.075c.114-.074.218-.148.342-.223.113-.064.227-.128.341-.18.02-.011.145-.065.01-.011-.124.053-.02.01.01 0 .073-.032.146-.054.218-.075.31-.106.59-.415.569-.766a.828.828 0 00-.569-.765c-1.324-.458-2.71-.65-4.045-1.085a8.227 8.227 0 01-.465-.17l-.094-.032c-.02-.01-.155-.085-.041-.021.114.063-.02-.011-.041-.022-.042-.021-.093-.042-.135-.063-.3-.139-.58-.309-.848-.5-.042-.032-.083-.064-.124-.086-.094-.063.02.032.041.032-.031.011-.165-.138-.197-.17-.134-.127-.268-.255-.393-.393a11.537 11.537 0 01-.31-.372l-.155-.192c.134.16.052.064.02.021-.03-.042-.062-.095-.103-.138a11.337 11.337 0 01-1.159-2.084 1.164 1.164 0 01-.082-.203c-.021-.031-.031-.074-.052-.106-.062-.149.062.149 0 .01-.124-.308-.238-.627-.352-.935-.465-1.319-.828-2.68-1.231-4.02-.559-1.808-1.21-3.584-2.059-5.265-.186-.372-.724-.51-1.065-.287-.373.245-.476.691-.28 1.096.207.404.404.819.59 1.233.083.192.176.383.248.575-.01-.022-.062-.16-.01-.022.02.043.041.096.062.138.042.107.083.213.124.309.29.744.549 1.5.787 2.265.434 1.372.806 2.765 1.262 4.127.434 1.297.962 2.584 1.717 3.722.403.606.859 1.223 1.417 1.691.6.521 1.262.893 1.997 1.18 1.469.586 3.062.756 4.552 1.266v-1.542c-2.255.745-3.549 3.053-4.262 5.222a15.777 15.777 0 00-.714 3.456c-.145 1.51-.042 3.042.083 4.553.144 1.86.32 3.722.113 5.583.507-.074 1.014-.138 1.521-.213a33.532 33.532 0 00-1.376-4.913c-.59-1.606-1.283-3.19-2.12-4.68-.714-1.255-1.573-2.478-2.67-3.403-.6-.5-1.22-.904-1.945-1.191-.641-.266-1.314-.34-1.996-.404-.497-.043-.983-.107-1.48-.139-.734-.042-1.458-.01-2.193.032.135.5.259.99.393 1.49 1.22-.777 2.41-1.628 3.476-2.638 1.055-1.01 2.038-2.17 2.566-3.563.507-1.34.59-2.84.559-4.275a50.66 50.66 0 00-.342-4.86 57.838 57.838 0 00-.93-5.648c-.094-.404-.57-.68-.953-.553a.903.903 0 00-.486 1.02zM45.709 44.401c.144.585.258 1.17.341 1.776l-.03-.212c.154 1.18.175 2.393.02 3.573l.03-.213a11.063 11.063 0 01-.723 2.776c.03-.064.051-.127.082-.191a9.06 9.06 0 01-.61 1.234 7.24 7.24 0 01-.383.595l-.186.255c.166-.223.031-.042-.01.01a1.828 1.828 0 01-.125.15 8.67 8.67 0 01-.962 1c-.082.074-.175.148-.258.223-.052.042-.228.18-.01.01-.052.032-.094.075-.145.117a12.53 12.53 0 01-.61.426 8.817 8.817 0 01-1.211.638c.062-.032.124-.053.186-.085-.3.128-.6.255-.9.394-.207.095-.403.18-.559.34-.351.34-.29.925.073 1.212.186.15.434.192.651.255.373.117.745.256 1.108.415-.063-.032-.125-.053-.187-.085a13.38 13.38 0 012.783 1.638c.02.021.041.032.062.053-.176-.138-.103-.074-.062-.053l.145.117c.093.074.186.16.269.234.155.149.31.298.455.468.073.074.135.16.207.245l.093.127c.031.043.083.117-.062-.074.02.032.041.053.062.085.124.17.248.35.352.542.269.436.486.904.693 1.383-.031-.064-.052-.128-.083-.192.745 1.83 1.087 3.797 1.418 5.743.082.522.175 1.043.269 1.564.03.18.206.393.351.478.155.085.321.117.497.096.383-.053.662-.383.672-.787l.093-2.659c.031-.85.031-1.712.145-2.563l-.03.213c.103-.734.258-1.468.444-2.18.093-.351.197-.702.3-1.053.093-.287.176-.585.29-.872-.031.063-.052.127-.083.191.145-.34.331-.66.548-.957.031-.043.062-.085.093-.138.073-.096-.134.17-.02.02.072-.095.145-.18.217-.276.135-.17.28-.33.424-.489.31-.33.642-.649.983-.957.083-.075.165-.138.248-.213.042-.032.083-.063.124-.106.021-.021.042-.043.073-.053-.031.021-.155.127-.062.042.165-.127.341-.255.507-.383.341-.234.693-.457 1.076-.616-.063.032-.124.053-.187.085.031-.011.063-.022.093-.043.187-.074.363-.18.466-.361a.87.87 0 00.093-.511.778.778 0 00-.765-.691c-.176 0-.352-.01-.518-.032.073.01.135.021.207.032a4.166 4.166 0 01-1.003-.287c.062.032.124.053.186.085a3.537 3.537 0 01-.559-.298c-.093-.053-.176-.117-.269-.17-.041-.032-.093-.064-.134-.096-.02-.01-.042-.032-.062-.043-.01-.01-.02-.02-.031-.02-.073-.065.103.084.093.074a9.59 9.59 0 01-.993-.968c-.073-.096-.156-.181-.228-.277l-.103-.138c-.083-.106.082.106.051.064-.02-.032-.041-.053-.062-.085-.155-.202-.29-.415-.434-.628-.29-.446-.548-.914-.786-1.393a25.126 25.126 0 01-.776-1.702c.03.064.051.128.082.192-.693-1.691-1.23-3.457-1.676-5.243a53.263 53.263 0 01-.29-1.234c-.092-.404-.568-.68-.951-.553a.868.868 0 00-.517 1.01c.217.968.455 1.936.734 2.893.32 1.117.693 2.234 1.118 3.318.455 1.138.962 2.266 1.603 3.308.57.936 1.252 1.85 2.09 2.542.403.33.828.638 1.303.85a5.05 5.05 0 001.625.437c.113.01.227.01.33.01-.072-.52-.134-1.042-.206-1.563-.849.34-1.583.872-2.287 1.457a12.266 12.266 0 00-1.924 1.978c-.28.362-.538.723-.745 1.138-.238.49-.393 1.021-.548 1.542-.372 1.266-.672 2.553-.766 3.871-.051.745-.062 1.5-.082 2.244-.021.766-.052 1.521-.073 2.287.507-.075 1.014-.138 1.521-.213-.372-2.116-.652-4.264-1.314-6.306-.341-1.032-.765-2.064-1.386-2.957a8.163 8.163 0 00-1.055-1.266 11.139 11.139 0 00-1.48-1.148 12.962 12.962 0 00-1.79-1.01c-.351-.17-.713-.32-1.086-.458-.3-.106-.6-.191-.9-.287.062.032.124.053.187.085l.268.276c.031.064.052.128.083.192l.031.213-.03.212c-.032.064-.053.128-.084.192-.062.096-.144.212-.237.255.02-.01.03-.021.051-.032.052-.032.104-.053.155-.085.145-.074.3-.138.456-.202-.063.032-.125.053-.187.085.424-.18.859-.361 1.273-.585.476-.255.92-.553 1.345-.883a9.936 9.936 0 002.286-2.53c1.18-1.862 1.697-4.117 1.707-6.318 0-1.319-.176-2.648-.486-3.925-.104-.404-.559-.69-.952-.553-.414.096-.662.5-.548.936zM56.189 16.186c.083.393.155.787.217 1.18.031.192.062.394.093.596.01.064.062.361.02.128.022.116.032.233.042.34.093.808.166 1.627.207 2.446a41.489 41.489 0 01-.041 4.945l-.093 1.223c-.021.181-.032.373-.052.553l-.031.266c0 .043-.01.085-.01.117-.01.064 0 .032.01-.095 0 .032-.01.063-.01.095-.094.681-.238 1.351-.414 2.01-.093.33-.197.66-.31.979-.063.16-.114.319-.177.479-.01.042-.03.074-.041.116.062-.202.031-.085.01-.032-.041.086-.072.181-.113.266-.28.628-.6 1.224-.983 1.798a7.54 7.54 0 01-.331.468c-.031.042-.093.096.03-.043-.03.043-.072.085-.103.128-.062.074-.114.149-.176.223-.237.287-.486.553-.755.82-.134.127-.269.254-.414.382-.072.064-.155.117-.217.18.135-.137.083-.063.031-.02-.041.031-.083.063-.134.095-.3.224-.621.436-.952.617-.29.16-.455.574-.352.904a.9.9 0 00.197.351c.114.128.372.255.548.234a13.62 13.62 0 013.093-.043l.259.032c.062.011.372.053.103.011.176.032.352.053.528.085.672.117 1.345.287 1.997.5.33.106.662.223.982.362.073.032.135.053.207.085.042.02.083.032.124.053a.557.557 0 01-.02-.01c.165.074.32.148.486.223.631.308 1.242.648 1.82 1.031.29.192.57.383.839.596l.217.16c.031.031.072.052.103.084a1.383 1.383 0 01-.051-.042c.155.127.3.244.445.372a15.941 15.941 0 012.162 2.276c.041.064.093.117.134.18-.165-.201.031.043.062.096l.31.447c.435.649.828 1.33 1.16 2.032.082.18.165.361.237.531.062.15-.072-.18-.01-.021.02.053.041.117.062.17l.093.255c.145.383.27.777.373 1.17.113.404.558.692.951.553.187-.063.373-.18.466-.361.103-.202.114-.394.083-.617 0-.01-.031-.213-.01-.085.02.127-.011-.064-.011-.075l-.031-.223c-.02-.17-.041-.34-.052-.51-.02-.266-.041-.532-.051-.798-.01-.415 0-.84-.01-1.255 0-.521-.032-1.032-.084-1.553a46.13 46.13 0 00-.144-1.18c-.031-.234-.063-.468-.093-.713-.01-.042-.01-.085-.021-.127-.031-.203.02.127 0 0-.01-.117-.031-.224-.042-.34a24.048 24.048 0 01-.196-2.288c-.01-.393-.01-.776.02-1.17.01-.18.021-.372.052-.552-.041.223.021-.107.021-.15.02-.106.031-.201.052-.308.062-.33.155-.648.258-.957.042-.138.093-.276.145-.415a.932.932 0 01.073-.18c.01-.043.03-.075.041-.117.072-.17-.031.085 0 .01.248-.563.528-1.106.859-1.616.093-.139.227-.288.31-.436-.01.01-.114.148-.031.042.031-.042.062-.074.093-.117l.155-.191c.218-.256.445-.5.693-.734.124-.117.259-.234.394-.351.103-.085-.031.032-.042.032.042-.021.073-.064.114-.085.072-.053.145-.107.207-.16.28-.202.569-.372.88-.532.289-.148.454-.584.35-.904a.812.812 0 00-.744-.584 18.779 18.779 0 01-1.334-.128c-.042 0-.083-.021-.125-.021.207-.011.073.01.01 0-.185-.032-.372-.054-.548-.085a18.937 18.937 0 01-2.069-.49 16.01 16.01 0 01-1.003-.34c-.155-.064-.31-.117-.476-.18-.02-.012-.238-.097-.238-.097.031.011.062.032.093.043-.03-.01-.062-.032-.093-.043-.041-.02-.093-.042-.134-.063a14.027 14.027 0 01-1.873-1.032c-.3-.202-.6-.404-.88-.628-.03-.02-.051-.042-.082-.063.176.127.03.032 0 0-.062-.053-.135-.107-.197-.16a6.96 6.96 0 01-.413-.372 13.02 13.02 0 01-.756-.766c-.248-.276-.465-.574-.703-.85.145.17-.031-.043-.062-.096-.052-.075-.104-.139-.155-.213a12.89 12.89 0 01-.321-.479c-.207-.319-.393-.648-.58-.978-.362-.66-.682-1.34-.982-2.042-.01-.032-.031-.064-.042-.096-.01-.032-.03-.064-.041-.096.041.107.052.117.02.043-.04-.096-.082-.202-.123-.298l-.218-.574c-.145-.394-.29-.798-.424-1.191-.28-.82-.538-1.638-.797-2.457-.124-.394-.548-.691-.951-.553-.414.117-.704.542-.57.968.932 2.988 1.904 6.073 3.715 8.636a13.887 13.887 0 003.33 3.36c1.232.873 2.608 1.532 4.025 2.01 1.614.543 3.3.84 4.997.936-.134-.5-.259-.989-.393-1.488-2.349 1.201-3.983 3.594-4.697 6.157-.434 1.564-.414 3.19-.238 4.786.052.447.104.883.166 1.33.01.106.03.202.041.308.01.043.01.085.02.128.032.202-.02-.128 0 .01.032.202.053.415.084.617.072.628.144 1.255.155 1.883.01.478 0 .957.01 1.435.02.756.103 1.51.207 2.266.497-.139.993-.288 1.5-.426-.796-2.892-2.452-5.509-4.624-7.498-2.173-2-4.863-3.456-7.718-4.062-1.593-.34-3.248-.447-4.862-.234.134.5.258.989.393 1.489 2.545-1.436 4.262-4.02 5.162-6.807.466-1.446.673-2.946.787-4.467a43.2 43.2 0 00.113-5.04c-.072-1.926-.269-3.85-.651-5.733-.083-.405-.57-.681-.952-.553-.445.117-.652.52-.57.957z" fill="#fde047"/></svg>